<?xml version="1.0" encoding="UTF-8" standalone="no"?>
<!DOCTYPE svg PUBLIC "-//W3C//DTD SVG 1.1//EN" "http://www.w3.org/Graphics/SVG/1.1/DTD/svg11.dtd">
<svg width="100%" height="100%" viewBox="0 0 33 34" version="1.1" xmlns="http://www.w3.org/2000/svg" xmlns:xlink="http://www.w3.org/1999/xlink" xml:space="preserve" xmlns:serif="http://www.serif.com/" style="fill-rule:evenodd;clip-rule:evenodd;stroke-linejoin:round;stroke-miterlimit:2;">
    <path d="M4.581,4.337C4.468,4.716 4.532,5.159 4.658,6.044L6.262,17.268C6.539,19.207 6.677,20.177 7.044,21.043C7.369,21.811 7.825,22.517 8.39,23.13C9.028,23.821 9.855,24.347 11.507,25.399L13.856,26.894C14.982,27.61 15.546,27.969 16.151,28.108C16.616,28.216 17.098,28.229 17.567,28.15C17.179,27.263 16.964,26.283 16.964,25.253C16.964,21.257 20.204,18.017 24.2,18.017C25.366,18.017 26.468,18.293 27.443,18.783C27.512,18.351 27.583,17.854 27.666,17.269L27.666,17.268L29.27,6.044C29.396,5.159 29.46,4.716 29.347,4.337C29.248,4.003 29.055,3.705 28.79,3.478C28.49,3.221 28.06,3.098 27.2,2.852L17.759,0.155C17.463,0.07 17.315,0.028 17.165,0.011C17.031,-0.004 16.897,-0.004 16.763,0.011C16.613,0.028 16.465,0.07 16.169,0.155L6.728,2.852C5.868,3.098 5.438,3.221 5.138,3.478C4.873,3.705 4.68,4.003 4.581,4.337Z" style="fill:rgb(45,45,45);fill-opacity:0.33;"/>
    <path d="M13.246,2.719C13.312,2.712 13.38,2.712 13.447,2.719C13.504,2.726 13.569,2.741 13.893,2.833L23.333,5.531C23.777,5.657 24.06,5.739 24.273,5.818C24.475,5.893 24.547,5.942 24.584,5.974C24.716,6.087 24.813,6.236 24.862,6.403C24.876,6.45 24.892,6.536 24.878,6.751C24.863,6.977 24.822,7.269 24.756,7.725L23.41,17.151C19.285,17.548 16.059,21.024 16.059,25.253C16.059,26.088 16.185,26.894 16.419,27.653L15.968,27.939C14.785,28.692 14.374,28.94 13.956,29.036C13.555,29.128 13.138,29.128 12.736,29.036C12.319,28.94 11.907,28.692 10.724,27.939L8.375,26.445C6.682,25.367 5.977,24.91 5.437,24.325C4.942,23.789 4.543,23.172 4.259,22.5C3.949,21.767 3.823,20.936 3.539,18.949L1.936,7.725C1.87,7.269 1.829,6.977 1.815,6.751C1.8,6.536 1.816,6.45 1.83,6.403C1.88,6.236 1.976,6.087 2.109,5.974C2.145,5.942 2.218,5.893 2.419,5.818C2.632,5.739 2.915,5.657 3.359,5.531L12.799,2.833C13.123,2.741 13.188,2.726 13.246,2.719ZM26.552,7.95L25.234,17.178C29.241,17.686 32.34,21.108 32.34,25.253C32.34,29.749 28.696,33.394 24.2,33.394C21.19,33.394 18.561,31.76 17.152,29.33L16.94,29.466L16.805,29.551C15.809,30.185 15.122,30.623 14.362,30.799C13.694,30.953 12.998,30.953 12.33,30.799C11.57,30.623 10.883,30.185 9.887,29.551L9.753,29.466L7.287,27.896C5.746,26.916 4.826,26.331 4.108,25.552C3.471,24.863 2.959,24.069 2.593,23.205C2.18,22.229 2.026,21.151 1.768,19.342L0.14,7.95C0.081,7.534 0.029,7.172 0.009,6.869C-0.012,6.546 -0.003,6.221 0.096,5.889C0.244,5.388 0.535,4.94 0.931,4.6C1.195,4.374 1.488,4.234 1.791,4.122C2.076,4.016 2.427,3.916 2.831,3.8L2.862,3.791L12.302,1.094L12.352,1.08C12.599,1.009 12.817,0.947 13.045,0.921C13.245,0.899 13.447,0.899 13.648,0.921C13.875,0.947 14.093,1.009 14.34,1.08L14.39,1.094L23.861,3.8C24.265,3.916 24.616,4.016 24.901,4.122C25.205,4.234 25.497,4.374 25.761,4.6C26.158,4.94 26.448,5.388 26.596,5.889C26.695,6.221 26.704,6.546 26.683,6.869C26.663,7.172 26.611,7.534 26.552,7.949L26.552,7.95ZM24.2,18.922C20.703,18.922 17.868,21.757 17.868,25.253C17.868,28.75 20.703,31.585 24.2,31.585C27.697,31.585 30.531,28.75 30.531,25.253C30.531,21.757 27.697,18.922 24.2,18.922ZM28.513,23.119C28.832,22.735 28.781,22.165 28.397,21.845C28.013,21.525 27.443,21.577 27.123,21.961L23.235,26.627L21.222,24.614C20.868,24.261 20.296,24.261 19.942,24.614C19.589,24.967 19.589,25.54 19.942,25.893L22.656,28.606C22.836,28.786 23.083,28.882 23.336,28.87C23.59,28.859 23.828,28.741 23.99,28.546L28.513,23.119ZM8.824,12.59C8.824,10.093 10.848,8.068 13.346,8.068C15.844,8.068 17.868,10.093 17.868,12.59C17.868,14.07 17.158,15.384 16.059,16.209L16.059,19.826C16.059,21.325 14.845,22.54 13.346,22.54C11.847,22.54 10.633,21.325 10.633,19.826L10.633,16.209C9.534,15.384 8.824,14.07 8.824,12.59ZM14.25,17.113L12.442,17.113L12.442,19.826C12.442,20.326 12.847,20.731 13.346,20.731C13.846,20.731 14.25,20.326 14.25,19.826L14.25,17.113ZM13.346,15.304C14.845,15.304 16.059,14.089 16.059,12.59C16.059,11.092 14.845,9.877 13.346,9.877C11.847,9.877 10.633,11.092 10.633,12.59C10.633,14.089 11.847,15.304 13.346,15.304Z" style="fill:rgb(45,45,45);"/>
</svg>
