<?xml version="1.0" encoding="UTF-8" standalone="no"?>
<!DOCTYPE svg PUBLIC "-//W3C//DTD SVG 1.1//EN" "http://www.w3.org/Graphics/SVG/1.1/DTD/svg11.dtd">
<svg width="100%" height="100%" viewBox="0 0 300 39" version="1.1" xmlns="http://www.w3.org/2000/svg" xmlns:xlink="http://www.w3.org/1999/xlink" xml:space="preserve" xmlns:serif="http://www.serif.com/" style="fill-rule:evenodd;clip-rule:evenodd;stroke-linejoin:round;stroke-miterlimit:2;">
    <g>
        <g transform="matrix(1.16896,0,0,1.16896,-0.764153,0)">
            <g>
                <clipPath id="_clip1">
                    <path d="M4.581,4.337C4.468,4.716 4.532,5.159 4.658,6.044L6.262,17.268C6.539,19.207 6.677,20.177 7.044,21.043C7.369,21.811 7.825,22.517 8.39,23.13C9.028,23.821 9.855,24.347 11.507,25.399L13.856,26.894C14.982,27.61 15.546,27.969 16.151,28.108C16.616,28.216 17.098,28.229 17.567,28.15C17.179,27.263 16.964,26.283 16.964,25.253C16.964,21.257 20.204,18.017 24.2,18.017C25.366,18.017 26.468,18.293 27.443,18.783C27.512,18.351 27.583,17.854 27.666,17.269L27.666,17.268L29.27,6.044C29.396,5.159 29.46,4.716 29.347,4.337C29.248,4.003 29.055,3.705 28.79,3.478C28.49,3.221 28.06,3.098 27.2,2.852L17.759,0.155C17.463,0.07 17.315,0.028 17.165,0.011C17.031,-0.004 16.897,-0.004 16.763,0.011C16.613,0.028 16.465,0.07 16.169,0.155L6.728,2.852C5.868,3.098 5.438,3.221 5.138,3.478C4.873,3.705 4.68,4.003 4.581,4.337Z"/>
                </clipPath>
                <g clip-path="url(#_clip1)">
                    <g transform="matrix(0.00484135,0,0,0.00762418,0.653705,0)">
                        <rect x="0" y="0" width="6000" height="3810" style="fill:rgb(117,7,135);fill-rule:nonzero;"/>
                    </g>
                    <g transform="matrix(0.00484135,0,0,0.00762418,0.653705,0)">
                        <rect x="0" y="0" width="6000" height="3175" style="fill:rgb(0,77,255);fill-rule:nonzero;"/>
                    </g>
                    <g transform="matrix(0.00484135,0,0,0.00762418,0.653705,0)">
                        <rect x="0" y="0" width="6000" height="2540" style="fill:rgb(0,128,38);fill-rule:nonzero;"/>
                    </g>
                    <g transform="matrix(0.00484135,0,0,0.00762418,0.653705,0)">
                        <rect x="0" y="0" width="6000" height="1905" style="fill:rgb(255,237,0);fill-rule:nonzero;"/>
                    </g>
                    <g transform="matrix(0.00484135,0,0,0.00762418,0.653705,0)">
                        <rect x="0" y="0" width="6000" height="1270" style="fill:rgb(255,140,0);fill-rule:nonzero;"/>
                    </g>
                    <g transform="matrix(0.00484135,0,0,0.00762418,0.653705,0)">
                        <rect x="0" y="0" width="6000" height="635" style="fill:rgb(228,3,3);fill-rule:nonzero;"/>
                    </g>
                </g>
            </g>
            <g style="filter:url(#_Effect2);">
                <g>
                    <clipPath id="_clip3">
                        <path d="M4.581,4.337C4.468,4.716 4.532,5.159 4.658,6.044L6.262,17.268C6.539,19.207 6.677,20.177 7.044,21.043C7.369,21.811 7.825,22.517 8.39,23.13C9.028,23.821 9.855,24.347 11.507,25.399L13.856,26.894C14.982,27.61 15.546,27.969 16.151,28.108C16.616,28.216 17.098,28.229 17.567,28.15C17.179,27.263 16.964,26.283 16.964,25.253C16.964,21.257 20.204,18.017 24.2,18.017C25.366,18.017 26.468,18.293 27.443,18.783C27.512,18.351 27.583,17.854 27.666,17.269L27.666,17.268L29.27,6.044C29.396,5.159 29.46,4.716 29.347,4.337C29.248,4.003 29.055,3.705 28.79,3.478C28.49,3.221 28.06,3.098 27.2,2.852L17.759,0.155C17.463,0.07 17.315,0.028 17.165,0.011C17.031,-0.004 16.897,-0.004 16.763,0.011C16.613,0.028 16.465,0.07 16.169,0.155L6.728,2.852C5.868,3.098 5.438,3.221 5.138,3.478C4.873,3.705 4.68,4.003 4.581,4.337Z"/>
                    </clipPath>
                    <g clip-path="url(#_clip3)">
                        <g transform="matrix(0.00484135,0,0,0.00762418,0.653705,0)">
                            <rect x="0" y="0" width="6000" height="3810" style="fill:rgb(117,7,135);fill-rule:nonzero;"/>
                        </g>
                        <g transform="matrix(0.00484135,0,0,0.00762418,0.653705,0)">
                            <rect x="0" y="0" width="6000" height="3175" style="fill:rgb(0,77,255);fill-rule:nonzero;"/>
                        </g>
                        <g transform="matrix(0.00484135,0,0,0.00762418,0.653705,0)">
                            <rect x="0" y="0" width="6000" height="2540" style="fill:rgb(0,128,38);fill-rule:nonzero;"/>
                        </g>
                        <g transform="matrix(0.00484135,0,0,0.00762418,0.653705,0)">
                            <rect x="0" y="0" width="6000" height="1905" style="fill:rgb(255,237,0);fill-rule:nonzero;"/>
                        </g>
                        <g transform="matrix(0.00484135,0,0,0.00762418,0.653705,0)">
                            <rect x="0" y="0" width="6000" height="1270" style="fill:rgb(255,140,0);fill-rule:nonzero;"/>
                        </g>
                        <g transform="matrix(0.00484135,0,0,0.00762418,0.653705,0)">
                            <rect x="0" y="0" width="6000" height="635" style="fill:rgb(228,3,3);fill-rule:nonzero;"/>
                        </g>
                    </g>
                </g>
            </g>
        </g>
        <g transform="matrix(1.16896,0,0,1.16896,-0.764153,0)">
            <g>
                <clipPath id="_clip4">
                    <path d="M4.581,4.337C4.468,4.716 4.532,5.159 4.658,6.044L6.262,17.268C6.539,19.207 6.677,20.177 7.044,21.043C7.369,21.811 7.825,22.517 8.39,23.13C9.028,23.821 9.855,24.347 11.507,25.399L13.856,26.894C14.982,27.61 15.546,27.969 16.151,28.108C16.616,28.216 17.098,28.229 17.567,28.15C17.179,27.263 16.964,26.283 16.964,25.253C16.964,21.257 20.204,18.017 24.2,18.017C25.366,18.017 26.468,18.293 27.443,18.783C27.512,18.351 27.583,17.854 27.666,17.269L27.666,17.268L29.27,6.044C29.396,5.159 29.46,4.716 29.347,4.337C29.248,4.003 29.055,3.705 28.79,3.478C28.49,3.221 28.06,3.098 27.2,2.852L17.759,0.155C17.463,0.07 17.315,0.028 17.165,0.011C17.031,-0.004 16.897,-0.004 16.763,0.011C16.613,0.028 16.465,0.07 16.169,0.155L6.728,2.852C5.868,3.098 5.438,3.221 5.138,3.478C4.873,3.705 4.68,4.003 4.581,4.337Z"/>
                </clipPath>
                <g clip-path="url(#_clip4)">
                    <g transform="matrix(0.00484135,0,0,0.00762418,0.653705,0)">
                        <rect x="0" y="0" width="6000" height="3810" style="fill:white;fill-opacity:0.49;fill-rule:nonzero;"/>
                    </g>
                </g>
            </g>
            <g style="filter:url(#_Effect5);">
                <g>
                    <clipPath id="_clip6">
                        <path d="M4.581,4.337C4.468,4.716 4.532,5.159 4.658,6.044L6.262,17.268C6.539,19.207 6.677,20.177 7.044,21.043C7.369,21.811 7.825,22.517 8.39,23.13C9.028,23.821 9.855,24.347 11.507,25.399L13.856,26.894C14.982,27.61 15.546,27.969 16.151,28.108C16.616,28.216 17.098,28.229 17.567,28.15C17.179,27.263 16.964,26.283 16.964,25.253C16.964,21.257 20.204,18.017 24.2,18.017C25.366,18.017 26.468,18.293 27.443,18.783C27.512,18.351 27.583,17.854 27.666,17.269L27.666,17.268L29.27,6.044C29.396,5.159 29.46,4.716 29.347,4.337C29.248,4.003 29.055,3.705 28.79,3.478C28.49,3.221 28.06,3.098 27.2,2.852L17.759,0.155C17.463,0.07 17.315,0.028 17.165,0.011C17.031,-0.004 16.897,-0.004 16.763,0.011C16.613,0.028 16.465,0.07 16.169,0.155L6.728,2.852C5.868,3.098 5.438,3.221 5.138,3.478C4.873,3.705 4.68,4.003 4.581,4.337Z"/>
                    </clipPath>
                    <g clip-path="url(#_clip6)">
                        <g transform="matrix(0.00484135,0,0,0.00762418,0.653705,0)">
                            <rect x="0" y="0" width="6000" height="3810" style="fill:white;fill-opacity:0.49;fill-rule:nonzero;"/>
                        </g>
                    </g>
                </g>
            </g>
        </g>
    </g>
    <g transform="matrix(0.689203,0,0,0.689203,-7.49104,-6.28359)">
        <path d="M32.836,13.626C32.946,13.614 33.058,13.614 33.169,13.626C33.265,13.637 33.371,13.663 33.909,13.816L49.565,18.289C50.3,18.5 50.771,18.635 51.123,18.765C51.458,18.89 51.578,18.972 51.638,19.024C51.858,19.212 52.018,19.459 52.1,19.736C52.123,19.813 52.149,19.956 52.126,20.313C52.102,20.688 52.034,21.172 51.925,21.929L49.692,37.56C42.851,38.219 37.502,43.983 37.502,50.997C37.502,52.382 37.711,53.718 38.098,54.976L37.351,55.452C35.388,56.701 34.706,57.11 34.014,57.27C33.348,57.424 32.657,57.424 31.991,57.27C31.298,57.11 30.616,56.701 28.654,55.452L24.758,52.973C21.95,51.186 20.781,50.428 19.886,49.458C19.065,48.569 18.404,47.545 17.932,46.43C17.418,45.215 17.209,43.837 16.738,40.543L14.079,21.929C13.971,21.172 13.903,20.688 13.878,20.313C13.855,19.956 13.881,19.813 13.904,19.736C13.986,19.459 14.147,19.212 14.366,19.024C14.427,18.972 14.547,18.89 14.881,18.765C15.234,18.635 15.704,18.5 16.439,18.289L32.096,13.816C32.633,13.663 32.74,13.637 32.836,13.626ZM54.903,22.301L52.716,37.605C59.363,38.447 64.502,44.122 64.502,50.997C64.502,58.453 58.458,64.497 51.002,64.497C46.01,64.497 41.651,61.787 39.315,57.758L38.962,57.983L38.739,58.124C37.088,59.177 35.947,59.903 34.688,60.194C33.579,60.449 32.426,60.449 31.317,60.194C30.058,59.903 28.917,59.177 27.265,58.124L27.043,57.983L22.954,55.381L22.954,55.381C20.398,53.754 18.873,52.784 17.681,51.493C16.626,50.35 15.776,49.033 15.17,47.6C14.484,45.982 14.229,44.193 13.801,41.194L11.102,22.301C11.003,21.611 10.918,21.012 10.885,20.508C10.85,19.973 10.864,19.435 11.028,18.883C11.274,18.052 11.756,17.31 12.414,16.746C12.851,16.372 13.336,16.139 13.839,15.952C14.312,15.777 14.895,15.611 15.564,15.419L15.615,15.405L31.271,10.932L31.354,10.908C31.764,10.791 32.125,10.687 32.502,10.645C32.835,10.608 33.17,10.608 33.502,10.645C33.88,10.687 34.241,10.791 34.65,10.908L34.733,10.932L50.44,15.419C51.11,15.611 51.692,15.777 52.166,15.952C52.668,16.139 53.154,16.372 53.591,16.746C54.249,17.31 54.73,18.052 54.977,18.883C55.14,19.435 55.155,19.973 55.12,20.508C55.087,21.012 55.001,21.611 54.903,22.3L54.903,22.301ZM51.002,40.497C45.203,40.497 40.502,45.198 40.502,50.997C40.502,56.796 45.203,61.497 51.002,61.497C56.801,61.497 61.502,56.796 61.502,50.997C61.502,45.198 56.801,40.497 51.002,40.497ZM58.154,47.458C58.685,46.821 58.599,45.875 57.962,45.345C57.326,44.815 56.38,44.9 55.85,45.537L49.401,53.275L46.063,49.936C45.477,49.351 44.527,49.351 43.942,49.936C43.356,50.522 43.356,51.472 43.942,52.058L48.442,56.558C48.74,56.856 49.149,57.015 49.57,56.996C49.991,56.977 50.385,56.781 50.654,56.458L58.154,47.458ZM25.502,29.997C25.502,25.855 28.86,22.497 33.002,22.497C37.144,22.497 40.502,25.855 40.502,29.997C40.502,32.451 39.324,34.629 37.502,35.998L37.502,41.997C37.502,44.483 35.488,46.497 33.002,46.497C30.517,46.497 28.502,44.483 28.502,41.997L28.502,35.998C26.681,34.629 25.502,32.451 25.502,29.997ZM34.502,37.497L31.502,37.497L31.502,41.997C31.502,42.826 32.174,43.497 33.002,43.497C33.831,43.497 34.502,42.826 34.502,41.997L34.502,37.497ZM33.002,34.497C35.488,34.497 37.502,32.483 37.502,29.997C37.502,27.512 35.488,25.497 33.002,25.497C30.517,25.497 28.502,27.512 28.502,29.997C28.502,32.483 30.517,34.497 33.002,34.497Z" style="fill:rgb(40,50,63);"/>
    </g>
    <g id="Privacy-Guides" serif:id="Privacy Guides" transform="matrix(0.0535473,0,0,0.0533183,-1.21787,-26.5177)">
        <g transform="matrix(658.502,0,0,658.502,5658.19,1072.74)">
        </g>
        <text x="970.977px" y="1072.74px" style="font-family:'Bagnard';font-size:658.502px;fill:rgb(40,50,63);">Privacy Guides</text>
    </g>
    <defs>
        <filter id="_Effect2" filterUnits="userSpaceOnUse" x="1.29668" y="-3.22574" width="31.3346" height="34.6521">
            <feGaussianBlur in="SourceGraphic" stdDeviation="1.07525"/>
        </filter>
        <filter id="_Effect5" filterUnits="userSpaceOnUse" x="1.29668" y="-3.22574" width="31.3346" height="34.6521">
            <feGaussianBlur in="SourceGraphic" stdDeviation="1.07525"/>
        </filter>
    </defs>
</svg>
