<?xml version="1.0" encoding="UTF-8" standalone="no"?>
<!DOCTYPE svg PUBLIC "-//W3C//DTD SVG 1.1//EN" "http://www.w3.org/Graphics/SVG/1.1/DTD/svg11.dtd">
<svg width="100%" height="100%" viewBox="0 0 512 512" version="1.1" xmlns="http://www.w3.org/2000/svg" xmlns:xlink="http://www.w3.org/1999/xlink" xml:space="preserve" xmlns:serif="http://www.serif.com/" style="fill-rule:evenodd;clip-rule:evenodd;stroke-linejoin:round;stroke-miterlimit:2;">
    <g>
        <g>
            <rect x="-0" y="0" width="512" height="512" style="fill:rgb(117,7,135);fill-rule:nonzero;"/>
            <rect x="-0" y="0" width="512" height="426.667" style="fill:rgb(0,77,255);fill-rule:nonzero;"/>
            <rect x="-0" y="0" width="512" height="341.333" style="fill:rgb(0,128,38);fill-rule:nonzero;"/>
            <rect x="-0" y="0" width="512" height="256" style="fill:rgb(255,237,0);fill-rule:nonzero;"/>
            <rect x="-0" y="0" width="512" height="170.667" style="fill:rgb(255,140,0);fill-rule:nonzero;"/>
            <rect x="-0" y="0" width="512" height="85.333" style="fill:rgb(228,3,3);fill-rule:nonzero;"/>
            <path d="M-34.848,129.008L92.951,256L-34.848,382.992L-34.848,129.008Z" style="fill:white;fill-rule:nonzero;"/>
            <path d="M-34.848,129.008L-34.848,64.504L156.111,256L-34.848,447.496L-34.848,382.992L92.951,256L-34.848,129.008Z" style="fill:rgb(255,175,200);fill-rule:nonzero;"/>
            <path d="M-34.848,64.504L-34.848,0L222.227,256L-34.848,512L-34.848,447.496L156.111,256L-34.848,64.504Z" style="fill:rgb(116,215,238);fill-rule:nonzero;"/>
            <path d="M-34.848,0L222.227,256L-34.848,512L29.791,512L285.656,256L29.791,0L-34.848,0Z" style="fill:rgb(97,57,21);fill-rule:nonzero;"/>
            <path d="M29.791,0L94.294,0L350.16,256L94.294,512L29.791,512L285.656,256L29.791,0Z" style="fill-rule:nonzero;"/>
        </g>
        <g style="filter:url(#_Effect1);">
            <g>
                <rect x="-0" y="0" width="512" height="512" style="fill:rgb(117,7,135);fill-rule:nonzero;"/>
                <rect x="-0" y="0" width="512" height="426.667" style="fill:rgb(0,77,255);fill-rule:nonzero;"/>
                <rect x="-0" y="0" width="512" height="341.333" style="fill:rgb(0,128,38);fill-rule:nonzero;"/>
                <rect x="-0" y="0" width="512" height="256" style="fill:rgb(255,237,0);fill-rule:nonzero;"/>
                <rect x="-0" y="0" width="512" height="170.667" style="fill:rgb(255,140,0);fill-rule:nonzero;"/>
                <rect x="-0" y="0" width="512" height="85.333" style="fill:rgb(228,3,3);fill-rule:nonzero;"/>
                <path d="M-34.848,129.008L92.951,256L-34.848,382.992L-34.848,129.008Z" style="fill:white;fill-rule:nonzero;"/>
                <path d="M-34.848,129.008L-34.848,64.504L156.111,256L-34.848,447.496L-34.848,382.992L92.951,256L-34.848,129.008Z" style="fill:rgb(255,175,200);fill-rule:nonzero;"/>
                <path d="M-34.848,64.504L-34.848,0L222.227,256L-34.848,512L-34.848,447.496L156.111,256L-34.848,64.504Z" style="fill:rgb(116,215,238);fill-rule:nonzero;"/>
                <path d="M-34.848,0L222.227,256L-34.848,512L29.791,512L285.656,256L29.791,0L-34.848,0Z" style="fill:rgb(97,57,21);fill-rule:nonzero;"/>
                <path d="M29.791,0L94.294,0L350.16,256L94.294,512L29.791,512L285.656,256L29.791,0Z" style="fill-rule:nonzero;"/>
            </g>
        </g>
    </g>
    <path d="M146.483,139.201C145.421,142.783 146.019,146.967 147.214,155.336L162.366,261.4C164.984,279.724 166.292,288.885 169.76,297.073C172.832,304.33 177.136,311 182.481,316.79C188.513,323.325 196.32,328.293 211.935,338.23L234.133,352.357C244.776,359.13 250.098,362.516 255.818,363.836C260.216,364.849 264.765,364.981 269.203,364.231C265.536,355.849 263.502,346.591 263.502,336.855C263.502,299.092 294.116,268.478 331.879,268.478C342.9,268.478 353.311,271.084 362.53,275.715C363.176,271.63 363.848,266.932 364.638,261.402L364.638,261.4L379.79,155.336C380.985,146.967 381.583,142.783 380.52,139.201C379.585,136.045 377.756,133.227 375.257,131.084C372.421,128.653 368.356,127.492 360.227,125.169L271.016,99.68C268.22,98.882 266.823,98.482 265.401,98.323C264.139,98.182 262.866,98.182 261.602,98.323C260.182,98.482 258.783,98.882 255.989,99.68L166.776,125.169C158.648,127.492 154.583,128.653 151.747,131.084C149.247,133.227 147.42,136.045 146.483,139.201Z" style="fill:rgb(255,208,111);fill-opacity:0.78;"/>
    <path d="M228.364,123.912C228.995,123.842 229.632,123.842 230.263,123.912C230.81,123.974 231.417,124.118 234.479,124.993L323.691,150.482C327.881,151.68 330.56,152.451 332.568,153.195C334.476,153.902 335.16,154.372 335.505,154.669C336.756,155.74 337.669,157.149 338.138,158.727C338.268,159.164 338.416,159.98 338.285,162.01C338.145,164.147 337.757,166.908 337.139,171.222L324.416,260.289C285.434,264.042 254.954,296.89 254.954,336.857C254.954,344.748 256.144,352.362 258.351,359.53L254.093,362.239C242.91,369.356 239.024,371.691 235.077,372.6C231.284,373.475 227.343,373.475 223.55,372.6C219.603,371.691 215.716,369.356 204.534,362.239L182.335,348.114C166.337,337.932 159.674,333.614 154.573,328.088C149.896,323.021 146.13,317.185 143.442,310.834C140.509,303.909 139.32,296.058 136.639,277.286L121.487,171.222C120.87,166.908 120.482,164.147 120.342,162.01C120.209,159.98 120.359,159.164 120.489,158.727C120.957,157.149 121.871,155.74 123.12,154.669C123.467,154.372 124.151,153.902 126.058,153.195C128.067,152.451 130.746,151.68 134.936,150.482L224.147,124.993C227.21,124.118 227.817,123.974 228.364,123.912ZM354.106,173.34L341.647,260.546C379.52,265.344 408.805,297.68 408.805,336.857C408.805,379.34 374.364,413.782 331.879,413.782C303.433,413.782 278.593,398.339 265.283,375.381L263.271,376.662L262.002,377.469C252.592,383.464 246.093,387.604 238.918,389.259C232.598,390.715 226.029,390.715 219.709,389.259C212.534,387.604 206.035,383.464 196.624,377.469L195.356,376.662L172.056,361.834L172.055,361.834C157.49,352.567 148.804,347.04 142.012,339.683C135.999,333.168 131.157,325.664 127.7,317.501C123.796,308.279 122.34,298.087 119.901,280.998L104.521,173.34C103.96,169.411 103.472,165.996 103.284,163.126C103.085,160.076 103.167,157.009 104.1,153.865C105.505,149.131 108.247,144.903 111.996,141.689C114.486,139.555 117.252,138.228 120.118,137.166C122.815,136.166 126.133,135.219 129.949,134.129L130.239,134.046L219.451,108.557L219.923,108.421C222.256,107.754 224.312,107.164 226.465,106.924C228.359,106.712 230.268,106.712 232.162,106.924C234.313,107.164 236.371,107.754 238.703,108.421L239.176,108.557L328.678,134.129C332.493,135.219 335.811,136.166 338.509,137.166C341.374,138.228 344.141,139.555 346.63,141.689C350.381,144.903 353.121,149.131 354.526,153.865C355.46,157.009 355.542,160.076 355.342,163.126C355.155,165.995 354.666,169.409 354.106,173.337L354.106,173.34ZM331.879,277.027C298.836,277.027 272.049,303.814 272.049,336.857C272.049,369.901 298.836,396.688 331.879,396.688C364.923,396.688 391.71,369.901 391.71,336.857C391.71,303.814 364.923,277.027 331.879,277.027ZM372.634,316.687C375.657,313.06 375.168,307.67 371.54,304.649C367.915,301.627 362.525,302.116 359.502,305.744L322.758,349.837L303.735,330.813C300.397,327.476 294.984,327.476 291.648,330.813C288.309,334.151 288.309,339.563 291.648,342.9L317.289,368.542C318.987,370.241 321.322,371.145 323.72,371.038C326.119,370.928 328.361,369.815 329.898,367.971L372.634,316.687ZM186.577,217.195C186.577,193.592 205.711,174.459 229.313,174.459C252.915,174.459 272.049,193.592 272.049,217.195C272.049,231.177 265.336,243.59 254.954,251.387L254.954,285.574C254.954,299.735 243.475,311.215 229.313,311.215C215.152,311.215 203.671,299.735 203.671,285.574L203.671,251.387C193.291,243.59 186.577,231.177 186.577,217.195ZM237.86,259.932L220.765,259.932L220.765,285.574C220.765,290.294 224.593,294.121 229.313,294.121C234.034,294.121 237.86,290.294 237.86,285.574L237.86,259.932ZM229.313,242.838C243.475,242.838 254.954,231.357 254.954,217.195C254.954,203.034 243.475,191.553 229.313,191.553C215.152,191.553 203.671,203.034 203.671,217.195C203.671,231.357 215.152,242.838 229.313,242.838Z" style="fill:white;"/>
    <defs>
        <filter id="_Effect1" filterUnits="userSpaceOnUse" x="-46.9387" y="-12.091" width="571.03" height="536.182">
            <feGaussianBlur in="SourceGraphic" stdDeviation="4.03032"/>
        </filter>
    </defs>
</svg>
